<svg xmlns="http://www.w3.org/2000/svg" width="35.4" height="46.4" viewBox="0 0 9.4 12.3"><path fill="#ad5d2f" d="M2.1 3.7l-.4.8.6.3c-.2-.2-.1-.4-.1-.4s.8-.3 1.3 0c-.3-.4-1-.3-1.3-.3v-.3zm1 1.5c-.3 0-.7.1-.7.3l.4 2.1h.4S3 6 3.2 5.2L3 5.2z"/><path fill="#dea584" d="M8.8 0c-1.2.2-2 .6-2.5.8l-2 1.8-.7 1.7.9 2.4c-.7.8-1.1.7-2.8 1-1-.7.2-5.4-1-5.4-1.2.6-.5 6.4-.2 6.5 1.2.1 2.3.4 3-.4l.4 1.2-.4.6.4 1.3c0 .2-.2.3-.2.3s.1.5.3.5c.1 0 .5-.4.4-.6l-.2-1.2c0-.4.8-.8 1-1.1l.2.4c0 .3.5 0 .5 0 0-.3-.1-.7-.3-.7l.2-.9s.8-.5 1-.9c0-.4-.6-1.5-.5-2.5l1.2.4-.2.6c.5.7.6.4 1-.5 0-.3-.3-.4-.5-.6a6.5 6.5 0 0 1-1.2-1.3c.2-.5.1-.5.6-.8l1 .3c.6.5.7.3 1.1.2l-.5-1c.2-.5 0-1 0-1.3l.6-.6-.6.1c.2-.2 0-.3 0-.3z"/></svg>